<svg width="512" height="512" viewBox="0 0 512 512" xmlns="http://www.w3.org/2000/svg">
  <defs>
    <linearGradient id="bg" x1="0" y1="0" x2="1" y2="1">
      <stop offset="0" stop-color="#6366F1"/>
      <stop offset="1" stop-color="#2563EB"/>
    </linearGradient>
    <radialGradient id="glow" cx="0.5" cy="0.38" r="0.7">
      <stop offset="0" stop-color="#ffffff" stop-opacity="0.18"/>
      <stop offset="1" stop-color="#ffffff" stop-opacity="0"/>
    </radialGradient>
    <filter id="shadow" x="-20%" y="-20%" width="140%" height="140%">
      <feDropShadow dx="0" dy="10" stdDeviation="14" flood-color="#0b1840" flood-opacity="0.35"/>
    </filter>
  </defs>

  <!-- Background -->
  <rect width="512" height="512" rx="112" fill="url(#bg)"/>
  <rect width="512" height="512" rx="112" fill="url(#glow)"/>

  <!-- Bell (filled, white) -->
  <g filter="url(#shadow)" transform="translate(100,108) scale(13)">
    <path fill="#ffffff" d="M12 2a1.6 1.6 0 0 1 1.6 1.6v.78a6.2 6.2 0 0 1 4.6 5.99V14l1.74 2.6a1.05 1.05 0 0 1-.87 1.63H5.93a1.05 1.05 0 0 1-.87-1.63L6.8 14v-3.63a6.2 6.2 0 0 1 4.6-5.99V3.6A1.6 1.6 0 0 1 12 2Z"/>
    <path fill="#ffffff" d="M9.3 19.2a2.7 2.7 0 0 0 5.4 0Z"/>
  </g>

  <!-- Voice waves (right side) -->
  <g fill="none" stroke="#ffffff" stroke-linecap="round" stroke-opacity="0.92">
    <path d="M372 214 a52 52 0 0 1 0 84" stroke-width="14"/>
    <path d="M398 196 a86 86 0 0 1 0 120" stroke-width="14" stroke-opacity="0.6"/>
  </g>

  <!-- Notification accent dot -->
  <circle cx="338" cy="150" r="30" fill="#F59E0B" stroke="#ffffff" stroke-width="8"/>
</svg>
