<svg width="1280" height="640" viewBox="0 0 1280 640" xmlns="http://www.w3.org/2000/svg">
  <defs>
    <linearGradient id="bg" x1="0" y1="0" x2="1" y2="1">
      <stop offset="0" stop-color="#0F172A"/>
      <stop offset="1" stop-color="#1E293B"/>
    </linearGradient>
    <linearGradient id="icon" x1="0" y1="0" x2="1" y2="1">
      <stop offset="0" stop-color="#6366F1"/>
      <stop offset="1" stop-color="#2563EB"/>
    </linearGradient>
    <radialGradient id="halo" cx="0.25" cy="0.4" r="0.5">
      <stop offset="0" stop-color="#2563EB" stop-opacity="0.35"/>
      <stop offset="1" stop-color="#2563EB" stop-opacity="0"/>
    </radialGradient>
  </defs>

  <rect width="1280" height="640" fill="url(#bg)"/>
  <rect width="1280" height="640" fill="url(#halo)"/>

  <!-- Icon tile -->
  <g transform="translate(96,180)">
    <rect width="280" height="280" rx="64" fill="url(#icon)"/>
    <g transform="translate(54,58) scale(7.6)">
      <path fill="#ffffff" d="M12 2a1.6 1.6 0 0 1 1.6 1.6v.78a6.2 6.2 0 0 1 4.6 5.99V14l1.74 2.6a1.05 1.05 0 0 1-.87 1.63H5.93a1.05 1.05 0 0 1-.87-1.63L6.8 14v-3.63a6.2 6.2 0 0 1 4.6-5.99V3.6A1.6 1.6 0 0 1 12 2Z"/>
      <path fill="#ffffff" d="M9.3 19.2a2.7 2.7 0 0 0 5.4 0Z"/>
    </g>
    <circle cx="214" cy="74" r="22" fill="#F59E0B" stroke="#ffffff" stroke-width="6"/>
  </g>

  <!-- Text -->
  <g font-family="Inter, 'Segoe UI', sans-serif">
    <text x="452" y="252" fill="#ffffff" font-size="72" font-weight="700">Voice Reminder Bot</text>
    <text x="454" y="318" fill="#93C5FD" font-size="36" font-weight="500">Speak it. Forget it. Get reminded.</text>
    <text x="454" y="384" fill="#94A3B8" font-size="28" font-weight="400">Telegram bot · Groq Whisper + LLM · WebApp calendar</text>

    <!-- tech chips -->
    <g font-size="24" font-weight="600">
      <g transform="translate(454,430)">
        <rect width="140" height="48" rx="24" fill="#1D283A" stroke="#334155"/>
        <text x="70" y="32" fill="#CBD5E1" text-anchor="middle">Python</text>
      </g>
      <g transform="translate(606,430)">
        <rect width="150" height="48" rx="24" fill="#1D283A" stroke="#334155"/>
        <text x="75" y="32" fill="#CBD5E1" text-anchor="middle">FastAPI</text>
      </g>
      <g transform="translate(768,430)">
        <rect width="120" height="48" rx="24" fill="#1D283A" stroke="#334155"/>
        <text x="60" y="32" fill="#CBD5E1" text-anchor="middle">Groq</text>
      </g>
      <g transform="translate(900,430)">
        <rect width="130" height="48" rx="24" fill="#1D283A" stroke="#334155"/>
        <text x="65" y="32" fill="#CBD5E1" text-anchor="middle">React</text>
      </g>
    </g>
  </g>
</svg>
